# xmcd
#
# Track frame offsets:
#	183
#	15133
#	37003
#	51833
#	60998
#	75448
#	89565
#	102168
#	123518
#	133548
#	148988
#	166818
#	181800
#	202800
#	216158
#	230463
#
# Disc length: 3179 seconds
#
# Revision: 3
# Processed by: cddbd v1.5.2PL0 Copyright (c) Steve Scherf et al.
# Submitted via: EasyCDDAExtractor 12.0.1.1
#
DISCID=ce0c6910
DTITLE=Various Artist - Crea Goldies Vol 3
DYEAR=1992
DGENRE=Dance
TTITLE0=Gloria Gaynor - DF 32 - I Will Survive
TTITLE1=Love Unlimited Orchestra - CC 32 - Spanish Lei
TTITLE2=Spotnicks - RB 30 - If you could read my mind
TTITLE3=Tom Jones - FX 50 - It's not unusual
TTITLE4=Slade - EW 30 - Everyday
TTITLE5=Dean Martin - WW 58 - That's amore
TTITLE6=Billy Fury - TG 32 - Jealousy
TTITLE7=Louis Prima - JV 32 - Just a Gigolo - I ain't got nobody (medley)
TTITLE8=Connie Francis - JV 36 - Stupid Cupid
TTITLE9=Barry White - DF 34 - You're the first, the last, my everything
TTITLE10=Phil Carmen - JV 36 - On my way in L.A.
TTITLE11=Robin Beck - BL 28 - First Time
TTITLE12=Trio Rio - HU 32 - New York - Rio - Tokyo
TTITLE13=Tom Jones - EW 30 - Funny familar forgotten feelings
TTITLE14=New Seekers - FX 50 - Never ending song of love
TTITLE15=Jerry Lee Lewis - JV 42 - Great balls of fire
EXTD=YEAR: 1992
EXTT0=
EXTT1=
EXTT2=
EXTT3=
EXTT4=
EXTT5=
EXTT6=
EXTT7=
EXTT8=
EXTT9=
EXTT10=
EXTT11=
EXTT12=
EXTT13=
EXTT14=
EXTT15=
PLAYORDER=
